<mxfile host="app.diagrams.net" modified="2023-07-22T14:57:03.406Z" agent="Mozilla/5.0 (Macintosh; Intel Mac OS X 10_15_7) AppleWebKit/537.36 (KHTML, like Gecko) Chrome/114.0.0.0 Safari/537.36" etag="WyOYzrcbqQU3O4LBXHy8" version="21.6.5" type="github">
  <diagram name="Page-1" id="53G3v-pCdLNyKACE5V_d">
    <mxGraphModel dx="1866" dy="1113" grid="1" gridSize="10" guides="1" tooltips="1" connect="1" arrows="1" fold="1" page="1" pageScale="1" pageWidth="1169" pageHeight="1654" math="0" shadow="0">
      <root>
        <mxCell id="0" />
        <mxCell id="1" parent="0" />
        <mxCell id="xqJ6BR3rVIV23o8yTr3R-313" value="" style="rounded=0;whiteSpace=wrap;html=1;" vertex="1" parent="1">
          <mxGeometry x="1380" y="40" width="270" height="710" as="geometry" />
        </mxCell>
        <mxCell id="xqJ6BR3rVIV23o8yTr3R-304" value="" style="rounded=0;whiteSpace=wrap;html=1;" vertex="1" parent="1">
          <mxGeometry x="1030" y="40" width="270" height="710" as="geometry" />
        </mxCell>
        <mxCell id="xqJ6BR3rVIV23o8yTr3R-301" value="" style="rounded=0;whiteSpace=wrap;html=1;" vertex="1" parent="1">
          <mxGeometry x="80" y="40" width="880" height="710" as="geometry" />
        </mxCell>
        <mxCell id="xqJ6BR3rVIV23o8yTr3R-221" value="" style="whiteSpace=wrap;html=1;rounded=1;arcSize=50;align=center;verticalAlign=middle;strokeWidth=1;autosize=1;spacing=4;treeFolding=1;treeMoving=1;newEdgeStyle={&quot;edgeStyle&quot;:&quot;entityRelationEdgeStyle&quot;,&quot;startArrow&quot;:&quot;none&quot;,&quot;endArrow&quot;:&quot;none&quot;,&quot;segment&quot;:10,&quot;curved&quot;:1,&quot;sourcePerimeterSpacing&quot;:0,&quot;targetPerimeterSpacing&quot;:0};fillColor=#d5e8d4;strokeColor=#82b366;gradientColor=#97d077;" vertex="1" parent="1">
          <mxGeometry x="200" y="360" width="290" height="50" as="geometry" />
        </mxCell>
        <mxCell id="xqJ6BR3rVIV23o8yTr3R-16" value="Input Table &lt;br&gt;(RecorderFile=&lt;span style=&quot;background-color: initial;&quot;&gt;CSVFile, ArrowFile)&lt;/span&gt;" style="shape=table;startSize=40;container=1;collapsible=1;childLayout=tableLayout;fixedRows=1;rowLines=0;fontStyle=1;align=center;resizeLast=1;html=1;fillColor=#fff2cc;strokeColor=#d6b656;gradientColor=#ffd966;" vertex="1" parent="1">
          <mxGeometry x="1060" y="120" width="210" height="170" as="geometry">
            <mxRectangle x="110" y="500" width="100" height="30" as="alternateBounds" />
          </mxGeometry>
        </mxCell>
        <mxCell id="xqJ6BR3rVIV23o8yTr3R-17" value="" style="shape=tableRow;horizontal=0;startSize=0;swimlaneHead=0;swimlaneBody=0;fillColor=none;collapsible=0;dropTarget=0;points=[[0,0.5],[1,0.5]];portConstraint=eastwest;top=0;left=0;right=0;bottom=1;" vertex="1" parent="xqJ6BR3rVIV23o8yTr3R-16">
          <mxGeometry y="40" width="210" height="30" as="geometry" />
        </mxCell>
        <mxCell id="xqJ6BR3rVIV23o8yTr3R-18" value="id" style="shape=partialRectangle;connectable=0;fillColor=none;top=0;left=0;bottom=0;right=0;fontStyle=1;overflow=hidden;whiteSpace=wrap;html=1;" vertex="1" parent="xqJ6BR3rVIV23o8yTr3R-17">
          <mxGeometry width="30" height="30" as="geometry">
            <mxRectangle width="30" height="30" as="alternateBounds" />
          </mxGeometry>
        </mxCell>
        <mxCell id="xqJ6BR3rVIV23o8yTr3R-19" value="Parameters. Ex.: &lt;br&gt;Load, Wind, ..." style="shape=partialRectangle;connectable=0;fillColor=none;top=0;left=0;bottom=0;right=0;align=left;spacingLeft=6;fontStyle=5;overflow=hidden;whiteSpace=wrap;html=1;" vertex="1" parent="xqJ6BR3rVIV23o8yTr3R-17">
          <mxGeometry x="30" width="180" height="30" as="geometry">
            <mxRectangle width="180" height="30" as="alternateBounds" />
          </mxGeometry>
        </mxCell>
        <mxCell id="xqJ6BR3rVIV23o8yTr3R-20" value="" style="shape=tableRow;horizontal=0;startSize=0;swimlaneHead=0;swimlaneBody=0;fillColor=none;collapsible=0;dropTarget=0;points=[[0,0.5],[1,0.5]];portConstraint=eastwest;top=0;left=0;right=0;bottom=0;" vertex="1" parent="xqJ6BR3rVIV23o8yTr3R-16">
          <mxGeometry y="70" width="210" height="30" as="geometry" />
        </mxCell>
        <mxCell id="xqJ6BR3rVIV23o8yTr3R-21" value="1" style="shape=partialRectangle;connectable=0;fillColor=none;top=0;left=0;bottom=0;right=0;editable=1;overflow=hidden;whiteSpace=wrap;html=1;" vertex="1" parent="xqJ6BR3rVIV23o8yTr3R-20">
          <mxGeometry width="30" height="30" as="geometry">
            <mxRectangle width="30" height="30" as="alternateBounds" />
          </mxGeometry>
        </mxCell>
        <mxCell id="xqJ6BR3rVIV23o8yTr3R-22" value="Instance 1: d1[1] ... dN[1]&lt;span style=&quot;font-size: 10px;&quot;&gt;&amp;nbsp;&lt;/span&gt;" style="shape=partialRectangle;connectable=0;fillColor=none;top=0;left=0;bottom=0;right=0;align=left;spacingLeft=6;overflow=hidden;whiteSpace=wrap;html=1;" vertex="1" parent="xqJ6BR3rVIV23o8yTr3R-20">
          <mxGeometry x="30" width="180" height="30" as="geometry">
            <mxRectangle width="180" height="30" as="alternateBounds" />
          </mxGeometry>
        </mxCell>
        <mxCell id="xqJ6BR3rVIV23o8yTr3R-23" value="" style="shape=tableRow;horizontal=0;startSize=0;swimlaneHead=0;swimlaneBody=0;fillColor=none;collapsible=0;dropTarget=0;points=[[0,0.5],[1,0.5]];portConstraint=eastwest;top=0;left=0;right=0;bottom=0;" vertex="1" parent="xqJ6BR3rVIV23o8yTr3R-16">
          <mxGeometry y="100" width="210" height="30" as="geometry" />
        </mxCell>
        <mxCell id="xqJ6BR3rVIV23o8yTr3R-24" value="2" style="shape=partialRectangle;connectable=0;fillColor=none;top=0;left=0;bottom=0;right=0;editable=1;overflow=hidden;whiteSpace=wrap;html=1;" vertex="1" parent="xqJ6BR3rVIV23o8yTr3R-23">
          <mxGeometry width="30" height="30" as="geometry">
            <mxRectangle width="30" height="30" as="alternateBounds" />
          </mxGeometry>
        </mxCell>
        <mxCell id="xqJ6BR3rVIV23o8yTr3R-25" value="Instance&amp;nbsp;2" style="shape=partialRectangle;connectable=0;fillColor=none;top=0;left=0;bottom=0;right=0;align=left;spacingLeft=6;overflow=hidden;whiteSpace=wrap;html=1;" vertex="1" parent="xqJ6BR3rVIV23o8yTr3R-23">
          <mxGeometry x="30" width="180" height="30" as="geometry">
            <mxRectangle width="180" height="30" as="alternateBounds" />
          </mxGeometry>
        </mxCell>
        <mxCell id="xqJ6BR3rVIV23o8yTr3R-26" value="" style="shape=tableRow;horizontal=0;startSize=0;swimlaneHead=0;swimlaneBody=0;fillColor=none;collapsible=0;dropTarget=0;points=[[0,0.5],[1,0.5]];portConstraint=eastwest;top=0;left=0;right=0;bottom=0;" vertex="1" parent="xqJ6BR3rVIV23o8yTr3R-16">
          <mxGeometry y="130" width="210" height="20" as="geometry" />
        </mxCell>
        <mxCell id="xqJ6BR3rVIV23o8yTr3R-27" value="..." style="shape=partialRectangle;connectable=0;fillColor=none;top=0;left=0;bottom=0;right=0;editable=1;overflow=hidden;whiteSpace=wrap;html=1;" vertex="1" parent="xqJ6BR3rVIV23o8yTr3R-26">
          <mxGeometry width="30" height="20" as="geometry">
            <mxRectangle width="30" height="20" as="alternateBounds" />
          </mxGeometry>
        </mxCell>
        <mxCell id="xqJ6BR3rVIV23o8yTr3R-28" value="..." style="shape=partialRectangle;connectable=0;fillColor=none;top=0;left=0;bottom=0;right=0;align=left;spacingLeft=6;overflow=hidden;whiteSpace=wrap;html=1;" vertex="1" parent="xqJ6BR3rVIV23o8yTr3R-26">
          <mxGeometry x="30" width="180" height="20" as="geometry">
            <mxRectangle width="180" height="20" as="alternateBounds" />
          </mxGeometry>
        </mxCell>
        <mxCell id="xqJ6BR3rVIV23o8yTr3R-58" value="" style="shape=tableRow;horizontal=0;startSize=0;swimlaneHead=0;swimlaneBody=0;fillColor=none;collapsible=0;dropTarget=0;points=[[0,0.5],[1,0.5]];portConstraint=eastwest;top=0;left=0;right=0;bottom=0;" vertex="1" parent="xqJ6BR3rVIV23o8yTr3R-16">
          <mxGeometry y="150" width="210" height="20" as="geometry" />
        </mxCell>
        <mxCell id="xqJ6BR3rVIV23o8yTr3R-59" value="T" style="shape=partialRectangle;connectable=0;fillColor=none;top=0;left=0;bottom=0;right=0;editable=1;overflow=hidden;whiteSpace=wrap;html=1;" vertex="1" parent="xqJ6BR3rVIV23o8yTr3R-58">
          <mxGeometry width="30" height="20" as="geometry">
            <mxRectangle width="30" height="20" as="alternateBounds" />
          </mxGeometry>
        </mxCell>
        <mxCell id="xqJ6BR3rVIV23o8yTr3R-60" value="Instance T" style="shape=partialRectangle;connectable=0;fillColor=none;top=0;left=0;bottom=0;right=0;align=left;spacingLeft=6;overflow=hidden;whiteSpace=wrap;html=1;" vertex="1" parent="xqJ6BR3rVIV23o8yTr3R-58">
          <mxGeometry x="30" width="180" height="20" as="geometry">
            <mxRectangle width="180" height="20" as="alternateBounds" />
          </mxGeometry>
        </mxCell>
        <mxCell id="xqJ6BR3rVIV23o8yTr3R-42" value="Output Table&lt;br&gt;(RecorderFile=CSVFile, ArrowFile)" style="shape=table;startSize=45;container=1;collapsible=1;childLayout=tableLayout;fixedRows=1;rowLines=0;fontStyle=1;align=center;resizeLast=1;html=1;fillColor=#fff2cc;strokeColor=#d6b656;gradientColor=#ffd966;" vertex="1" parent="1">
          <mxGeometry x="1060" y="345" width="210" height="265" as="geometry" />
        </mxCell>
        <mxCell id="xqJ6BR3rVIV23o8yTr3R-43" value="" style="shape=tableRow;horizontal=0;startSize=0;swimlaneHead=0;swimlaneBody=0;fillColor=none;collapsible=0;dropTarget=0;points=[[0,0.5],[1,0.5]];portConstraint=eastwest;top=0;left=0;right=0;bottom=1;" vertex="1" parent="xqJ6BR3rVIV23o8yTr3R-42">
          <mxGeometry y="45" width="210" height="50" as="geometry" />
        </mxCell>
        <mxCell id="xqJ6BR3rVIV23o8yTr3R-44" value="id" style="shape=partialRectangle;connectable=0;fillColor=none;top=0;left=0;bottom=0;right=0;fontStyle=1;overflow=hidden;whiteSpace=wrap;html=1;" vertex="1" parent="xqJ6BR3rVIV23o8yTr3R-43">
          <mxGeometry width="30" height="50" as="geometry">
            <mxRectangle width="30" height="50" as="alternateBounds" />
          </mxGeometry>
        </mxCell>
        <mxCell id="xqJ6BR3rVIV23o8yTr3R-45" value="Primal and Dual Variables (Dispatch, LMP, ...)" style="shape=partialRectangle;connectable=0;fillColor=none;top=0;left=0;bottom=0;right=0;align=left;spacingLeft=6;fontStyle=5;overflow=hidden;whiteSpace=wrap;html=1;" vertex="1" parent="xqJ6BR3rVIV23o8yTr3R-43">
          <mxGeometry x="30" width="180" height="50" as="geometry">
            <mxRectangle width="180" height="50" as="alternateBounds" />
          </mxGeometry>
        </mxCell>
        <mxCell id="xqJ6BR3rVIV23o8yTr3R-46" value="" style="shape=tableRow;horizontal=0;startSize=0;swimlaneHead=0;swimlaneBody=0;fillColor=none;collapsible=0;dropTarget=0;points=[[0,0.5],[1,0.5]];portConstraint=eastwest;top=0;left=0;right=0;bottom=0;" vertex="1" parent="xqJ6BR3rVIV23o8yTr3R-42">
          <mxGeometry y="95" width="210" height="30" as="geometry" />
        </mxCell>
        <mxCell id="xqJ6BR3rVIV23o8yTr3R-47" value="1" style="shape=partialRectangle;connectable=0;fillColor=none;top=0;left=0;bottom=0;right=0;editable=1;overflow=hidden;whiteSpace=wrap;html=1;" vertex="1" parent="xqJ6BR3rVIV23o8yTr3R-46">
          <mxGeometry width="30" height="30" as="geometry">
            <mxRectangle width="30" height="30" as="alternateBounds" />
          </mxGeometry>
        </mxCell>
        <mxCell id="xqJ6BR3rVIV23o8yTr3R-48" value="Solution 1: g1[1] ... gN[1]" style="shape=partialRectangle;connectable=0;fillColor=none;top=0;left=0;bottom=0;right=0;align=left;spacingLeft=6;overflow=hidden;whiteSpace=wrap;html=1;" vertex="1" parent="xqJ6BR3rVIV23o8yTr3R-46">
          <mxGeometry x="30" width="180" height="30" as="geometry">
            <mxRectangle width="180" height="30" as="alternateBounds" />
          </mxGeometry>
        </mxCell>
        <mxCell id="xqJ6BR3rVIV23o8yTr3R-49" value="" style="shape=tableRow;horizontal=0;startSize=0;swimlaneHead=0;swimlaneBody=0;fillColor=none;collapsible=0;dropTarget=0;points=[[0,0.5],[1,0.5]];portConstraint=eastwest;top=0;left=0;right=0;bottom=0;" vertex="1" parent="xqJ6BR3rVIV23o8yTr3R-42">
          <mxGeometry y="125" width="210" height="30" as="geometry" />
        </mxCell>
        <mxCell id="xqJ6BR3rVIV23o8yTr3R-50" value="5" style="shape=partialRectangle;connectable=0;fillColor=none;top=0;left=0;bottom=0;right=0;editable=1;overflow=hidden;whiteSpace=wrap;html=1;" vertex="1" parent="xqJ6BR3rVIV23o8yTr3R-49">
          <mxGeometry width="30" height="30" as="geometry">
            <mxRectangle width="30" height="30" as="alternateBounds" />
          </mxGeometry>
        </mxCell>
        <mxCell id="xqJ6BR3rVIV23o8yTr3R-51" value="Solution&amp;nbsp;5" style="shape=partialRectangle;connectable=0;fillColor=none;top=0;left=0;bottom=0;right=0;align=left;spacingLeft=6;overflow=hidden;whiteSpace=wrap;html=1;" vertex="1" parent="xqJ6BR3rVIV23o8yTr3R-49">
          <mxGeometry x="30" width="180" height="30" as="geometry">
            <mxRectangle width="180" height="30" as="alternateBounds" />
          </mxGeometry>
        </mxCell>
        <mxCell id="xqJ6BR3rVIV23o8yTr3R-52" value="" style="shape=tableRow;horizontal=0;startSize=0;swimlaneHead=0;swimlaneBody=0;fillColor=none;collapsible=0;dropTarget=0;points=[[0,0.5],[1,0.5]];portConstraint=eastwest;top=0;left=0;right=0;bottom=0;" vertex="1" parent="xqJ6BR3rVIV23o8yTr3R-42">
          <mxGeometry y="155" width="210" height="20" as="geometry" />
        </mxCell>
        <mxCell id="xqJ6BR3rVIV23o8yTr3R-53" value="..." style="shape=partialRectangle;connectable=0;fillColor=none;top=0;left=0;bottom=0;right=0;editable=1;overflow=hidden;whiteSpace=wrap;html=1;" vertex="1" parent="xqJ6BR3rVIV23o8yTr3R-52">
          <mxGeometry width="30" height="20" as="geometry">
            <mxRectangle width="30" height="20" as="alternateBounds" />
          </mxGeometry>
        </mxCell>
        <mxCell id="xqJ6BR3rVIV23o8yTr3R-54" value="..." style="shape=partialRectangle;connectable=0;fillColor=none;top=0;left=0;bottom=0;right=0;align=left;spacingLeft=6;overflow=hidden;whiteSpace=wrap;html=1;" vertex="1" parent="xqJ6BR3rVIV23o8yTr3R-52">
          <mxGeometry x="30" width="180" height="20" as="geometry">
            <mxRectangle width="180" height="20" as="alternateBounds" />
          </mxGeometry>
        </mxCell>
        <mxCell id="xqJ6BR3rVIV23o8yTr3R-61" value="" style="shape=tableRow;horizontal=0;startSize=0;swimlaneHead=0;swimlaneBody=0;fillColor=none;collapsible=0;dropTarget=0;points=[[0,0.5],[1,0.5]];portConstraint=eastwest;top=0;left=0;right=0;bottom=0;" vertex="1" parent="xqJ6BR3rVIV23o8yTr3R-42">
          <mxGeometry y="175" width="210" height="30" as="geometry" />
        </mxCell>
        <mxCell id="xqJ6BR3rVIV23o8yTr3R-62" value="j" style="shape=partialRectangle;connectable=0;fillColor=none;top=0;left=0;bottom=0;right=0;editable=1;overflow=hidden;whiteSpace=wrap;html=1;" vertex="1" parent="xqJ6BR3rVIV23o8yTr3R-61">
          <mxGeometry width="30" height="30" as="geometry">
            <mxRectangle width="30" height="30" as="alternateBounds" />
          </mxGeometry>
        </mxCell>
        <mxCell id="xqJ6BR3rVIV23o8yTr3R-63" value="Solution&amp;nbsp;j" style="shape=partialRectangle;connectable=0;fillColor=none;top=0;left=0;bottom=0;right=0;align=left;spacingLeft=6;overflow=hidden;whiteSpace=wrap;html=1;" vertex="1" parent="xqJ6BR3rVIV23o8yTr3R-61">
          <mxGeometry x="30" width="180" height="30" as="geometry">
            <mxRectangle width="180" height="30" as="alternateBounds" />
          </mxGeometry>
        </mxCell>
        <mxCell id="xqJ6BR3rVIV23o8yTr3R-287" style="shape=tableRow;horizontal=0;startSize=0;swimlaneHead=0;swimlaneBody=0;fillColor=none;collapsible=0;dropTarget=0;points=[[0,0.5],[1,0.5]];portConstraint=eastwest;top=0;left=0;right=0;bottom=0;" vertex="1" parent="xqJ6BR3rVIV23o8yTr3R-42">
          <mxGeometry y="205" width="210" height="30" as="geometry" />
        </mxCell>
        <mxCell id="xqJ6BR3rVIV23o8yTr3R-288" value="..." style="shape=partialRectangle;connectable=0;fillColor=none;top=0;left=0;bottom=0;right=0;editable=1;overflow=hidden;whiteSpace=wrap;html=1;" vertex="1" parent="xqJ6BR3rVIV23o8yTr3R-287">
          <mxGeometry width="30" height="30" as="geometry">
            <mxRectangle width="30" height="30" as="alternateBounds" />
          </mxGeometry>
        </mxCell>
        <mxCell id="xqJ6BR3rVIV23o8yTr3R-289" value="..." style="shape=partialRectangle;connectable=0;fillColor=none;top=0;left=0;bottom=0;right=0;align=left;spacingLeft=6;overflow=hidden;whiteSpace=wrap;html=1;" vertex="1" parent="xqJ6BR3rVIV23o8yTr3R-287">
          <mxGeometry x="30" width="180" height="30" as="geometry">
            <mxRectangle width="180" height="30" as="alternateBounds" />
          </mxGeometry>
        </mxCell>
        <mxCell id="xqJ6BR3rVIV23o8yTr3R-290" style="shape=tableRow;horizontal=0;startSize=0;swimlaneHead=0;swimlaneBody=0;fillColor=none;collapsible=0;dropTarget=0;points=[[0,0.5],[1,0.5]];portConstraint=eastwest;top=0;left=0;right=0;bottom=0;" vertex="1" parent="xqJ6BR3rVIV23o8yTr3R-42">
          <mxGeometry y="235" width="210" height="30" as="geometry" />
        </mxCell>
        <mxCell id="xqJ6BR3rVIV23o8yTr3R-291" value="K" style="shape=partialRectangle;connectable=0;fillColor=none;top=0;left=0;bottom=0;right=0;editable=1;overflow=hidden;whiteSpace=wrap;html=1;" vertex="1" parent="xqJ6BR3rVIV23o8yTr3R-290">
          <mxGeometry width="30" height="30" as="geometry">
            <mxRectangle width="30" height="30" as="alternateBounds" />
          </mxGeometry>
        </mxCell>
        <mxCell id="xqJ6BR3rVIV23o8yTr3R-292" value="&lt;span style=&quot;color: rgb(0, 0, 0); font-family: Helvetica; font-size: 12px; font-style: normal; font-variant-ligatures: normal; font-variant-caps: normal; font-weight: 400; letter-spacing: normal; orphans: 2; text-align: left; text-indent: 0px; text-transform: none; widows: 2; word-spacing: 0px; -webkit-text-stroke-width: 0px; background-color: rgb(251, 251, 251); text-decoration-thickness: initial; text-decoration-style: initial; text-decoration-color: initial; float: none; display: inline !important;&quot;&gt;Solution&amp;nbsp;K&lt;/span&gt;" style="shape=partialRectangle;connectable=0;fillColor=none;top=0;left=0;bottom=0;right=0;align=left;spacingLeft=6;overflow=hidden;whiteSpace=wrap;html=1;" vertex="1" parent="xqJ6BR3rVIV23o8yTr3R-290">
          <mxGeometry x="30" width="180" height="30" as="geometry">
            <mxRectangle width="180" height="30" as="alternateBounds" />
          </mxGeometry>
        </mxCell>
        <mxCell id="xqJ6BR3rVIV23o8yTr3R-139" value="Type: Problem Iterator" style="shape=table;startSize=30;container=1;collapsible=0;childLayout=tableLayout;perimeterSpacing=0;fillColor=#d5e8d4;strokeColor=#82b366;gradientColor=#97d077;" vertex="1" parent="1">
          <mxGeometry x="110" y="150" width="380" height="195" as="geometry" />
        </mxCell>
        <mxCell id="xqJ6BR3rVIV23o8yTr3R-140" value="" style="shape=tableRow;horizontal=0;startSize=0;swimlaneHead=0;swimlaneBody=0;strokeColor=inherit;top=0;left=0;bottom=0;right=0;collapsible=0;dropTarget=0;fillColor=none;points=[[0,0.5],[1,0.5]];portConstraint=eastwest;" vertex="1" parent="xqJ6BR3rVIV23o8yTr3R-139">
          <mxGeometry y="30" width="380" height="30" as="geometry" />
        </mxCell>
        <mxCell id="xqJ6BR3rVIV23o8yTr3R-155" value="" style="shape=partialRectangle;html=1;whiteSpace=wrap;connectable=0;overflow=hidden;top=0;left=0;bottom=0;right=0;pointerEvents=1;rowspan=2;colspan=1;strokeColor=inherit;fillColor=none;" vertex="1" parent="xqJ6BR3rVIV23o8yTr3R-140">
          <mxGeometry width="40" height="75" as="geometry">
            <mxRectangle width="40" height="30" as="alternateBounds" />
          </mxGeometry>
        </mxCell>
        <mxCell id="xqJ6BR3rVIV23o8yTr3R-141" value="" style="shape=partialRectangle;html=1;whiteSpace=wrap;connectable=0;overflow=hidden;top=0;left=0;bottom=0;right=0;pointerEvents=1;fillColor=none;strokeColor=inherit;" vertex="1" parent="xqJ6BR3rVIV23o8yTr3R-140">
          <mxGeometry x="40" width="30" height="30" as="geometry">
            <mxRectangle width="30" height="30" as="alternateBounds" />
          </mxGeometry>
        </mxCell>
        <mxCell id="xqJ6BR3rVIV23o8yTr3R-142" value="Instances" style="shape=partialRectangle;html=1;whiteSpace=wrap;connectable=0;strokeColor=#330000;overflow=hidden;fillColor=#bac8d3;top=0;left=0;bottom=0;right=0;pointerEvents=1;rowspan=1;colspan=5;" vertex="1" parent="xqJ6BR3rVIV23o8yTr3R-140">
          <mxGeometry x="70" width="310" height="30" as="geometry">
            <mxRectangle width="131" height="30" as="alternateBounds" />
          </mxGeometry>
        </mxCell>
        <mxCell id="xqJ6BR3rVIV23o8yTr3R-143" value="" style="shape=partialRectangle;html=1;whiteSpace=wrap;connectable=0;strokeColor=inherit;overflow=hidden;fillColor=none;top=0;left=0;bottom=0;right=0;pointerEvents=1;" vertex="1" visible="0" parent="xqJ6BR3rVIV23o8yTr3R-140">
          <mxGeometry x="201" width="28" height="30" as="geometry">
            <mxRectangle width="28" height="30" as="alternateBounds" />
          </mxGeometry>
        </mxCell>
        <mxCell id="xqJ6BR3rVIV23o8yTr3R-222" style="shape=partialRectangle;html=1;whiteSpace=wrap;connectable=0;strokeColor=inherit;overflow=hidden;fillColor=none;top=0;left=0;bottom=0;right=0;pointerEvents=1;" vertex="1" visible="0" parent="xqJ6BR3rVIV23o8yTr3R-140">
          <mxGeometry x="229" width="61" height="30" as="geometry">
            <mxRectangle width="61" height="30" as="alternateBounds" />
          </mxGeometry>
        </mxCell>
        <mxCell id="xqJ6BR3rVIV23o8yTr3R-227" style="shape=partialRectangle;html=1;whiteSpace=wrap;connectable=0;strokeColor=inherit;overflow=hidden;fillColor=none;top=0;left=0;bottom=0;right=0;pointerEvents=1;" vertex="1" visible="0" parent="xqJ6BR3rVIV23o8yTr3R-140">
          <mxGeometry x="290" width="30" height="30" as="geometry">
            <mxRectangle width="30" height="30" as="alternateBounds" />
          </mxGeometry>
        </mxCell>
        <mxCell id="xqJ6BR3rVIV23o8yTr3R-144" value="" style="shape=partialRectangle;html=1;whiteSpace=wrap;connectable=0;strokeColor=inherit;overflow=hidden;fillColor=none;top=0;left=0;bottom=0;right=0;pointerEvents=1;" vertex="1" visible="0" parent="xqJ6BR3rVIV23o8yTr3R-140">
          <mxGeometry x="320" width="60" height="30" as="geometry">
            <mxRectangle width="60" height="30" as="alternateBounds" />
          </mxGeometry>
        </mxCell>
        <mxCell id="xqJ6BR3rVIV23o8yTr3R-170" style="shape=tableRow;horizontal=0;startSize=0;swimlaneHead=0;swimlaneBody=0;strokeColor=inherit;top=0;left=0;bottom=0;right=0;collapsible=0;dropTarget=0;fillColor=none;points=[[0,0.5],[1,0.5]];portConstraint=eastwest;" vertex="1" parent="xqJ6BR3rVIV23o8yTr3R-139">
          <mxGeometry y="60" width="380" height="45" as="geometry" />
        </mxCell>
        <mxCell id="xqJ6BR3rVIV23o8yTr3R-171" value="" style="shape=partialRectangle;html=1;whiteSpace=wrap;connectable=0;strokeColor=#23445d;overflow=hidden;fillColor=#bac8d3;top=0;left=0;bottom=0;right=0;pointerEvents=1;" vertex="1" visible="0" parent="xqJ6BR3rVIV23o8yTr3R-170">
          <mxGeometry width="40" height="45" as="geometry">
            <mxRectangle width="40" height="45" as="alternateBounds" />
          </mxGeometry>
        </mxCell>
        <mxCell id="xqJ6BR3rVIV23o8yTr3R-172" value="&lt;b&gt;id&lt;/b&gt;" style="shape=partialRectangle;html=1;whiteSpace=wrap;connectable=0;strokeColor=inherit;overflow=hidden;fillColor=none;top=0;left=0;bottom=0;right=0;pointerEvents=1;" vertex="1" parent="xqJ6BR3rVIV23o8yTr3R-170">
          <mxGeometry x="40" width="30" height="45" as="geometry">
            <mxRectangle width="30" height="45" as="alternateBounds" />
          </mxGeometry>
        </mxCell>
        <mxCell id="xqJ6BR3rVIV23o8yTr3R-173" value="b9531992-27f3-11ee-355f-a1112e9ad1b6" style="shape=partialRectangle;html=1;whiteSpace=wrap;connectable=0;strokeColor=#10739e;overflow=hidden;fillColor=#b1ddf0;top=0;left=0;bottom=0;right=0;pointerEvents=1;" vertex="1" parent="xqJ6BR3rVIV23o8yTr3R-170">
          <mxGeometry x="70" width="131" height="45" as="geometry">
            <mxRectangle width="131" height="45" as="alternateBounds" />
          </mxGeometry>
        </mxCell>
        <mxCell id="xqJ6BR3rVIV23o8yTr3R-174" value="..." style="shape=partialRectangle;html=1;whiteSpace=wrap;connectable=0;strokeColor=#10739e;overflow=hidden;fillColor=#b1ddf0;top=0;left=0;bottom=0;right=0;pointerEvents=1;" vertex="1" parent="xqJ6BR3rVIV23o8yTr3R-170">
          <mxGeometry x="201" width="28" height="45" as="geometry">
            <mxRectangle width="28" height="45" as="alternateBounds" />
          </mxGeometry>
        </mxCell>
        <mxCell id="xqJ6BR3rVIV23o8yTr3R-223" value="ID[j]" style="shape=partialRectangle;html=1;whiteSpace=wrap;connectable=0;strokeColor=#10739e;overflow=hidden;fillColor=#b1ddf0;top=0;left=0;bottom=0;right=0;pointerEvents=1;" vertex="1" parent="xqJ6BR3rVIV23o8yTr3R-170">
          <mxGeometry x="229" width="61" height="45" as="geometry">
            <mxRectangle width="61" height="45" as="alternateBounds" />
          </mxGeometry>
        </mxCell>
        <mxCell id="xqJ6BR3rVIV23o8yTr3R-228" value="..." style="shape=partialRectangle;html=1;whiteSpace=wrap;connectable=0;strokeColor=#10739e;overflow=hidden;fillColor=#b1ddf0;top=0;left=0;bottom=0;right=0;pointerEvents=1;" vertex="1" parent="xqJ6BR3rVIV23o8yTr3R-170">
          <mxGeometry x="290" width="30" height="45" as="geometry">
            <mxRectangle width="30" height="45" as="alternateBounds" />
          </mxGeometry>
        </mxCell>
        <mxCell id="xqJ6BR3rVIV23o8yTr3R-175" value="ID[T]" style="shape=partialRectangle;html=1;whiteSpace=wrap;connectable=0;strokeColor=#10739e;overflow=hidden;fillColor=#b1ddf0;top=0;left=0;bottom=0;right=0;pointerEvents=1;" vertex="1" parent="xqJ6BR3rVIV23o8yTr3R-170">
          <mxGeometry x="320" width="60" height="45" as="geometry">
            <mxRectangle width="60" height="45" as="alternateBounds" />
          </mxGeometry>
        </mxCell>
        <mxCell id="xqJ6BR3rVIV23o8yTr3R-145" value="" style="shape=tableRow;horizontal=0;startSize=0;swimlaneHead=0;swimlaneBody=0;strokeColor=inherit;top=0;left=0;bottom=0;right=0;collapsible=0;dropTarget=0;fillColor=none;points=[[0,0.5],[1,0.5]];portConstraint=eastwest;" vertex="1" parent="xqJ6BR3rVIV23o8yTr3R-139">
          <mxGeometry y="105" width="380" height="30" as="geometry" />
        </mxCell>
        <mxCell id="xqJ6BR3rVIV23o8yTr3R-156" value="" style="shape=partialRectangle;html=1;whiteSpace=wrap;connectable=0;strokeColor=default;overflow=hidden;fillColor=#bac8d3;top=0;left=0;bottom=0;right=0;pointerEvents=1;flipV=1;flipH=1;rowspan=3;colspan=1;verticalAlign=middle;align=center;fontStyle=0" vertex="1" parent="xqJ6BR3rVIV23o8yTr3R-145">
          <mxGeometry width="40" height="90" as="geometry">
            <mxRectangle width="40" height="30" as="alternateBounds" />
          </mxGeometry>
        </mxCell>
        <mxCell id="xqJ6BR3rVIV23o8yTr3R-146" value="d1" style="shape=partialRectangle;html=1;whiteSpace=wrap;connectable=0;strokeColor=#ae4132;overflow=hidden;fillColor=#fad9d5;top=0;left=0;bottom=0;right=0;pointerEvents=1;" vertex="1" parent="xqJ6BR3rVIV23o8yTr3R-145">
          <mxGeometry x="40" width="30" height="30" as="geometry">
            <mxRectangle width="30" height="30" as="alternateBounds" />
          </mxGeometry>
        </mxCell>
        <mxCell id="xqJ6BR3rVIV23o8yTr3R-147" value="0.1" style="shape=partialRectangle;html=1;whiteSpace=wrap;connectable=0;strokeColor=#10739e;overflow=hidden;fillColor=#b1ddf0;top=0;left=0;bottom=0;right=0;pointerEvents=1;" vertex="1" parent="xqJ6BR3rVIV23o8yTr3R-145">
          <mxGeometry x="70" width="131" height="30" as="geometry">
            <mxRectangle width="131" height="30" as="alternateBounds" />
          </mxGeometry>
        </mxCell>
        <mxCell id="xqJ6BR3rVIV23o8yTr3R-148" value="..." style="shape=partialRectangle;html=1;whiteSpace=wrap;connectable=0;strokeColor=#10739e;overflow=hidden;fillColor=#b1ddf0;top=0;left=0;bottom=0;right=0;pointerEvents=1;" vertex="1" parent="xqJ6BR3rVIV23o8yTr3R-145">
          <mxGeometry x="201" width="28" height="30" as="geometry">
            <mxRectangle width="28" height="30" as="alternateBounds" />
          </mxGeometry>
        </mxCell>
        <mxCell id="xqJ6BR3rVIV23o8yTr3R-224" value="d1[j]" style="shape=partialRectangle;html=1;whiteSpace=wrap;connectable=0;strokeColor=#10739e;overflow=hidden;fillColor=#b1ddf0;top=0;left=0;bottom=0;right=0;pointerEvents=1;" vertex="1" parent="xqJ6BR3rVIV23o8yTr3R-145">
          <mxGeometry x="229" width="61" height="30" as="geometry">
            <mxRectangle width="61" height="30" as="alternateBounds" />
          </mxGeometry>
        </mxCell>
        <mxCell id="xqJ6BR3rVIV23o8yTr3R-229" value="..." style="shape=partialRectangle;html=1;whiteSpace=wrap;connectable=0;strokeColor=#10739e;overflow=hidden;fillColor=#b1ddf0;top=0;left=0;bottom=0;right=0;pointerEvents=1;" vertex="1" parent="xqJ6BR3rVIV23o8yTr3R-145">
          <mxGeometry x="290" width="30" height="30" as="geometry">
            <mxRectangle width="30" height="30" as="alternateBounds" />
          </mxGeometry>
        </mxCell>
        <mxCell id="xqJ6BR3rVIV23o8yTr3R-149" value="d1[T]" style="shape=partialRectangle;html=1;whiteSpace=wrap;connectable=0;strokeColor=#10739e;overflow=hidden;fillColor=#b1ddf0;top=0;left=0;bottom=0;right=0;pointerEvents=1;" vertex="1" parent="xqJ6BR3rVIV23o8yTr3R-145">
          <mxGeometry x="320" width="60" height="30" as="geometry">
            <mxRectangle width="60" height="30" as="alternateBounds" />
          </mxGeometry>
        </mxCell>
        <mxCell id="xqJ6BR3rVIV23o8yTr3R-150" value="" style="shape=tableRow;horizontal=0;startSize=0;swimlaneHead=0;swimlaneBody=0;strokeColor=inherit;top=0;left=0;bottom=0;right=0;collapsible=0;dropTarget=0;fillColor=none;points=[[0,0.5],[1,0.5]];portConstraint=eastwest;" vertex="1" parent="xqJ6BR3rVIV23o8yTr3R-139">
          <mxGeometry y="135" width="380" height="30" as="geometry" />
        </mxCell>
        <mxCell id="xqJ6BR3rVIV23o8yTr3R-157" style="shape=partialRectangle;html=1;whiteSpace=wrap;connectable=0;strokeColor=inherit;overflow=hidden;fillColor=none;top=0;left=0;bottom=0;right=0;pointerEvents=1;" vertex="1" visible="0" parent="xqJ6BR3rVIV23o8yTr3R-150">
          <mxGeometry width="40" height="30" as="geometry">
            <mxRectangle width="40" height="30" as="alternateBounds" />
          </mxGeometry>
        </mxCell>
        <mxCell id="xqJ6BR3rVIV23o8yTr3R-151" value="..." style="shape=partialRectangle;html=1;whiteSpace=wrap;connectable=0;strokeColor=#ae4132;overflow=hidden;fillColor=#fad9d5;top=0;left=0;bottom=0;right=0;pointerEvents=1;" vertex="1" parent="xqJ6BR3rVIV23o8yTr3R-150">
          <mxGeometry x="40" width="30" height="30" as="geometry">
            <mxRectangle width="30" height="30" as="alternateBounds" />
          </mxGeometry>
        </mxCell>
        <mxCell id="xqJ6BR3rVIV23o8yTr3R-152" value="..." style="shape=partialRectangle;html=1;whiteSpace=wrap;connectable=0;strokeColor=#10739e;overflow=hidden;fillColor=#b1ddf0;top=0;left=0;bottom=0;right=0;pointerEvents=1;" vertex="1" parent="xqJ6BR3rVIV23o8yTr3R-150">
          <mxGeometry x="70" width="131" height="30" as="geometry">
            <mxRectangle width="131" height="30" as="alternateBounds" />
          </mxGeometry>
        </mxCell>
        <mxCell id="xqJ6BR3rVIV23o8yTr3R-153" value="..." style="shape=partialRectangle;html=1;whiteSpace=wrap;connectable=0;strokeColor=#10739e;overflow=hidden;fillColor=#b1ddf0;top=0;left=0;bottom=0;right=0;pointerEvents=1;" vertex="1" parent="xqJ6BR3rVIV23o8yTr3R-150">
          <mxGeometry x="201" width="28" height="30" as="geometry">
            <mxRectangle width="28" height="30" as="alternateBounds" />
          </mxGeometry>
        </mxCell>
        <mxCell id="xqJ6BR3rVIV23o8yTr3R-225" value="..." style="shape=partialRectangle;html=1;whiteSpace=wrap;connectable=0;strokeColor=#10739e;overflow=hidden;fillColor=#b1ddf0;top=0;left=0;bottom=0;right=0;pointerEvents=1;" vertex="1" parent="xqJ6BR3rVIV23o8yTr3R-150">
          <mxGeometry x="229" width="61" height="30" as="geometry">
            <mxRectangle width="61" height="30" as="alternateBounds" />
          </mxGeometry>
        </mxCell>
        <mxCell id="xqJ6BR3rVIV23o8yTr3R-230" value="..." style="shape=partialRectangle;html=1;whiteSpace=wrap;connectable=0;strokeColor=#10739e;overflow=hidden;fillColor=#b1ddf0;top=0;left=0;bottom=0;right=0;pointerEvents=1;" vertex="1" parent="xqJ6BR3rVIV23o8yTr3R-150">
          <mxGeometry x="290" width="30" height="30" as="geometry">
            <mxRectangle width="30" height="30" as="alternateBounds" />
          </mxGeometry>
        </mxCell>
        <mxCell id="xqJ6BR3rVIV23o8yTr3R-154" value="..." style="shape=partialRectangle;html=1;whiteSpace=wrap;connectable=0;strokeColor=#10739e;overflow=hidden;fillColor=#b1ddf0;top=0;left=0;bottom=0;right=0;pointerEvents=1;" vertex="1" parent="xqJ6BR3rVIV23o8yTr3R-150">
          <mxGeometry x="320" width="60" height="30" as="geometry">
            <mxRectangle width="60" height="30" as="alternateBounds" />
          </mxGeometry>
        </mxCell>
        <mxCell id="xqJ6BR3rVIV23o8yTr3R-158" style="shape=tableRow;horizontal=0;startSize=0;swimlaneHead=0;swimlaneBody=0;strokeColor=inherit;top=0;left=0;bottom=0;right=0;collapsible=0;dropTarget=0;fillColor=none;points=[[0,0.5],[1,0.5]];portConstraint=eastwest;" vertex="1" parent="xqJ6BR3rVIV23o8yTr3R-139">
          <mxGeometry y="165" width="380" height="30" as="geometry" />
        </mxCell>
        <mxCell id="xqJ6BR3rVIV23o8yTr3R-159" style="shape=partialRectangle;html=1;whiteSpace=wrap;connectable=0;strokeColor=inherit;overflow=hidden;fillColor=none;top=0;left=0;bottom=0;right=0;pointerEvents=1;" vertex="1" visible="0" parent="xqJ6BR3rVIV23o8yTr3R-158">
          <mxGeometry width="40" height="30" as="geometry">
            <mxRectangle width="40" height="30" as="alternateBounds" />
          </mxGeometry>
        </mxCell>
        <mxCell id="xqJ6BR3rVIV23o8yTr3R-160" value="dN" style="shape=partialRectangle;html=1;whiteSpace=wrap;connectable=0;strokeColor=#ae4132;overflow=hidden;fillColor=#fad9d5;top=0;left=0;bottom=0;right=0;pointerEvents=1;" vertex="1" parent="xqJ6BR3rVIV23o8yTr3R-158">
          <mxGeometry x="40" width="30" height="30" as="geometry">
            <mxRectangle width="30" height="30" as="alternateBounds" />
          </mxGeometry>
        </mxCell>
        <mxCell id="xqJ6BR3rVIV23o8yTr3R-161" value="2.5" style="shape=partialRectangle;html=1;whiteSpace=wrap;connectable=0;strokeColor=#10739e;overflow=hidden;fillColor=#b1ddf0;top=0;left=0;bottom=0;right=0;pointerEvents=1;" vertex="1" parent="xqJ6BR3rVIV23o8yTr3R-158">
          <mxGeometry x="70" width="131" height="30" as="geometry">
            <mxRectangle width="131" height="30" as="alternateBounds" />
          </mxGeometry>
        </mxCell>
        <mxCell id="xqJ6BR3rVIV23o8yTr3R-162" value="..." style="shape=partialRectangle;html=1;whiteSpace=wrap;connectable=0;strokeColor=#10739e;overflow=hidden;fillColor=#b1ddf0;top=0;left=0;bottom=0;right=0;pointerEvents=1;" vertex="1" parent="xqJ6BR3rVIV23o8yTr3R-158">
          <mxGeometry x="201" width="28" height="30" as="geometry">
            <mxRectangle width="28" height="30" as="alternateBounds" />
          </mxGeometry>
        </mxCell>
        <mxCell id="xqJ6BR3rVIV23o8yTr3R-226" value="dN[j]" style="shape=partialRectangle;html=1;whiteSpace=wrap;connectable=0;strokeColor=#10739e;overflow=hidden;fillColor=#b1ddf0;top=0;left=0;bottom=0;right=0;pointerEvents=1;" vertex="1" parent="xqJ6BR3rVIV23o8yTr3R-158">
          <mxGeometry x="229" width="61" height="30" as="geometry">
            <mxRectangle width="61" height="30" as="alternateBounds" />
          </mxGeometry>
        </mxCell>
        <mxCell id="xqJ6BR3rVIV23o8yTr3R-231" value="..." style="shape=partialRectangle;html=1;whiteSpace=wrap;connectable=0;strokeColor=#10739e;overflow=hidden;fillColor=#b1ddf0;top=0;left=0;bottom=0;right=0;pointerEvents=1;" vertex="1" parent="xqJ6BR3rVIV23o8yTr3R-158">
          <mxGeometry x="290" width="30" height="30" as="geometry">
            <mxRectangle width="30" height="30" as="alternateBounds" />
          </mxGeometry>
        </mxCell>
        <mxCell id="xqJ6BR3rVIV23o8yTr3R-163" value="dN[T]" style="shape=partialRectangle;html=1;whiteSpace=wrap;connectable=0;strokeColor=#10739e;overflow=hidden;fillColor=#b1ddf0;top=0;left=0;bottom=0;right=0;pointerEvents=1;" vertex="1" parent="xqJ6BR3rVIV23o8yTr3R-158">
          <mxGeometry x="320" width="60" height="30" as="geometry">
            <mxRectangle width="60" height="30" as="alternateBounds" />
          </mxGeometry>
        </mxCell>
        <mxCell id="xqJ6BR3rVIV23o8yTr3R-181" value="Parameters" style="text;html=1;strokeColor=none;fillColor=none;align=center;verticalAlign=middle;whiteSpace=wrap;rounded=0;rotation=-90;" vertex="1" parent="1">
          <mxGeometry x="100" y="290" width="60" height="30" as="geometry" />
        </mxCell>
        <mxCell id="xqJ6BR3rVIV23o8yTr3R-185" style="edgeStyle=entityRelationEdgeStyle;rounded=0;orthogonalLoop=1;jettySize=auto;html=1;startArrow=none;endArrow=block;segment=10;curved=1;sourcePerimeterSpacing=0;targetPerimeterSpacing=0;strokeColor=default;startFill=0;endFill=1;entryX=0;entryY=0.5;entryDx=0;entryDy=0;exitX=1;exitY=0.5;exitDx=0;exitDy=0;" edge="1" parent="1" source="xqJ6BR3rVIV23o8yTr3R-183" target="xqJ6BR3rVIV23o8yTr3R-20">
          <mxGeometry relative="1" as="geometry">
            <mxPoint x="-40" y="510" as="sourcePoint" />
            <mxPoint x="110" y="595" as="targetPoint" />
          </mxGeometry>
        </mxCell>
        <mxCell id="xqJ6BR3rVIV23o8yTr3R-183" value="save" style="whiteSpace=wrap;html=1;rounded=1;arcSize=50;align=center;verticalAlign=middle;strokeWidth=1;autosize=1;spacing=4;treeFolding=1;treeMoving=1;newEdgeStyle={&quot;edgeStyle&quot;:&quot;entityRelationEdgeStyle&quot;,&quot;startArrow&quot;:&quot;none&quot;,&quot;endArrow&quot;:&quot;none&quot;,&quot;segment&quot;:10,&quot;curved&quot;:1,&quot;sourcePerimeterSpacing&quot;:0,&quot;targetPerimeterSpacing&quot;:0};fillColor=#d5e8d4;strokeColor=#82b366;gradientColor=#97d077;" vertex="1" parent="1">
          <mxGeometry x="608" y="60" width="70" height="30" as="geometry" />
        </mxCell>
        <mxCell id="xqJ6BR3rVIV23o8yTr3R-184" value="" style="edgeStyle=entityRelationEdgeStyle;startArrow=none;endArrow=none;segment=10;curved=1;sourcePerimeterSpacing=0;targetPerimeterSpacing=0;rounded=0;exitX=0.5;exitY=0;exitDx=0;exitDy=0;entryX=0;entryY=0.5;entryDx=0;entryDy=0;" edge="1" target="xqJ6BR3rVIV23o8yTr3R-183" parent="1" source="xqJ6BR3rVIV23o8yTr3R-139">
          <mxGeometry relative="1" as="geometry">
            <mxPoint x="145" y="452" as="sourcePoint" />
          </mxGeometry>
        </mxCell>
        <mxCell id="xqJ6BR3rVIV23o8yTr3R-258" style="edgeStyle=orthogonalEdgeStyle;rounded=0;orthogonalLoop=1;jettySize=auto;html=1;entryX=0.5;entryY=0;entryDx=0;entryDy=0;curved=1;" edge="1" parent="1" source="xqJ6BR3rVIV23o8yTr3R-192" target="xqJ6BR3rVIV23o8yTr3R-257">
          <mxGeometry relative="1" as="geometry" />
        </mxCell>
        <mxCell id="xqJ6BR3rVIV23o8yTr3R-192" value="JuMP.jl Model" style="shape=table;startSize=30;container=1;collapsible=0;childLayout=tableLayout;fillColor=#fad9d5;strokeColor=#ae4132;fontStyle=1" vertex="1" parent="1">
          <mxGeometry x="720" y="180" width="210" height="190" as="geometry" />
        </mxCell>
        <mxCell id="xqJ6BR3rVIV23o8yTr3R-193" value="" style="shape=tableRow;horizontal=0;startSize=0;swimlaneHead=0;swimlaneBody=0;strokeColor=inherit;top=0;left=0;bottom=0;right=0;collapsible=0;dropTarget=0;fillColor=none;points=[[0,0.5],[1,0.5]];portConstraint=eastwest;" vertex="1" parent="xqJ6BR3rVIV23o8yTr3R-192">
          <mxGeometry y="30" width="210" height="40" as="geometry" />
        </mxCell>
        <mxCell id="xqJ6BR3rVIV23o8yTr3R-194" value="&lt;b&gt;Min&lt;/b&gt;" style="shape=partialRectangle;html=1;whiteSpace=wrap;connectable=0;strokeColor=inherit;overflow=hidden;fillColor=none;top=0;left=0;bottom=0;right=0;pointerEvents=1;" vertex="1" parent="xqJ6BR3rVIV23o8yTr3R-193">
          <mxGeometry width="50" height="40" as="geometry">
            <mxRectangle width="50" height="40" as="alternateBounds" />
          </mxGeometry>
        </mxCell>
        <mxCell id="xqJ6BR3rVIV23o8yTr3R-195" value="c&#39;g" style="shape=partialRectangle;html=1;whiteSpace=wrap;connectable=0;strokeColor=#10739e;overflow=hidden;fillColor=#b1ddf0;top=0;left=0;bottom=0;right=0;pointerEvents=1;" vertex="1" parent="xqJ6BR3rVIV23o8yTr3R-193">
          <mxGeometry x="50" width="160" height="40" as="geometry">
            <mxRectangle width="160" height="40" as="alternateBounds" />
          </mxGeometry>
        </mxCell>
        <mxCell id="xqJ6BR3rVIV23o8yTr3R-196" value="" style="shape=tableRow;horizontal=0;startSize=0;swimlaneHead=0;swimlaneBody=0;strokeColor=inherit;top=0;left=0;bottom=0;right=0;collapsible=0;dropTarget=0;fillColor=none;points=[[0,0.5],[1,0.5]];portConstraint=eastwest;" vertex="1" parent="xqJ6BR3rVIV23o8yTr3R-192">
          <mxGeometry y="70" width="210" height="40" as="geometry" />
        </mxCell>
        <mxCell id="xqJ6BR3rVIV23o8yTr3R-197" value="&lt;b&gt;s.t.&lt;/b&gt;" style="shape=partialRectangle;html=1;whiteSpace=wrap;connectable=0;strokeColor=inherit;overflow=hidden;fillColor=none;top=0;left=0;bottom=0;right=0;pointerEvents=1;" vertex="1" parent="xqJ6BR3rVIV23o8yTr3R-196">
          <mxGeometry width="50" height="40" as="geometry">
            <mxRectangle width="50" height="40" as="alternateBounds" />
          </mxGeometry>
        </mxCell>
        <mxCell id="xqJ6BR3rVIV23o8yTr3R-198" value="sum( f&lt;sub style=&quot;border-color: var(--border-color);&quot;&gt;{n,1}&amp;nbsp;&lt;/sub&gt;) + sum( f&lt;sub style=&quot;border-color: var(--border-color);&quot;&gt;{1,m}&amp;nbsp;&lt;/sub&gt;)&lt;br&gt;&amp;nbsp;+ g1 &amp;lt;= d1" style="shape=partialRectangle;html=1;whiteSpace=wrap;connectable=0;strokeColor=#10739e;overflow=hidden;fillColor=#b1ddf0;top=0;left=0;bottom=0;right=0;pointerEvents=1;" vertex="1" parent="xqJ6BR3rVIV23o8yTr3R-196">
          <mxGeometry x="50" width="160" height="40" as="geometry">
            <mxRectangle width="160" height="40" as="alternateBounds" />
          </mxGeometry>
        </mxCell>
        <mxCell id="xqJ6BR3rVIV23o8yTr3R-199" value="" style="shape=tableRow;horizontal=0;startSize=0;swimlaneHead=0;swimlaneBody=0;strokeColor=inherit;top=0;left=0;bottom=0;right=0;collapsible=0;dropTarget=0;fillColor=none;points=[[0,0.5],[1,0.5]];portConstraint=eastwest;" vertex="1" parent="xqJ6BR3rVIV23o8yTr3R-192">
          <mxGeometry y="110" width="210" height="40" as="geometry" />
        </mxCell>
        <mxCell id="xqJ6BR3rVIV23o8yTr3R-200" value="" style="shape=partialRectangle;html=1;whiteSpace=wrap;connectable=0;strokeColor=inherit;overflow=hidden;fillColor=none;top=0;left=0;bottom=0;right=0;pointerEvents=1;rowspan=2;colspan=1;" vertex="1" parent="xqJ6BR3rVIV23o8yTr3R-199">
          <mxGeometry width="50" height="80" as="geometry">
            <mxRectangle width="50" height="40" as="alternateBounds" />
          </mxGeometry>
        </mxCell>
        <mxCell id="xqJ6BR3rVIV23o8yTr3R-201" value="..." style="shape=partialRectangle;html=1;whiteSpace=wrap;connectable=0;strokeColor=#10739e;overflow=hidden;fillColor=#b1ddf0;top=0;left=0;bottom=0;right=0;pointerEvents=1;" vertex="1" parent="xqJ6BR3rVIV23o8yTr3R-199">
          <mxGeometry x="50" width="160" height="40" as="geometry">
            <mxRectangle width="160" height="40" as="alternateBounds" />
          </mxGeometry>
        </mxCell>
        <mxCell id="xqJ6BR3rVIV23o8yTr3R-202" value="" style="shape=tableRow;horizontal=0;startSize=0;swimlaneHead=0;swimlaneBody=0;strokeColor=inherit;top=0;left=0;bottom=0;right=0;collapsible=0;dropTarget=0;fillColor=none;points=[[0,0.5],[1,0.5]];portConstraint=eastwest;" vertex="1" parent="xqJ6BR3rVIV23o8yTr3R-192">
          <mxGeometry y="150" width="210" height="40" as="geometry" />
        </mxCell>
        <mxCell id="xqJ6BR3rVIV23o8yTr3R-203" value="" style="shape=partialRectangle;html=1;whiteSpace=wrap;connectable=0;strokeColor=inherit;overflow=hidden;fillColor=none;top=0;left=0;bottom=0;right=0;pointerEvents=1;" vertex="1" visible="0" parent="xqJ6BR3rVIV23o8yTr3R-202">
          <mxGeometry width="50" height="40" as="geometry">
            <mxRectangle width="50" height="40" as="alternateBounds" />
          </mxGeometry>
        </mxCell>
        <mxCell id="xqJ6BR3rVIV23o8yTr3R-204" value="&lt;div&gt;sum( f{n,N} ) + sum( f{N,m} )&lt;/div&gt;&lt;div&gt;&amp;nbsp;+ gN &amp;lt;= dN&lt;/div&gt;" style="shape=partialRectangle;html=1;whiteSpace=wrap;connectable=0;strokeColor=#10739e;overflow=hidden;fillColor=#b1ddf0;top=0;left=0;bottom=0;right=0;pointerEvents=1;" vertex="1" parent="xqJ6BR3rVIV23o8yTr3R-202">
          <mxGeometry x="50" width="160" height="40" as="geometry">
            <mxRectangle width="160" height="40" as="alternateBounds" />
          </mxGeometry>
        </mxCell>
        <mxCell id="xqJ6BR3rVIV23o8yTr3R-283" style="edgeStyle=entityRelationEdgeStyle;rounded=0;orthogonalLoop=1;jettySize=auto;html=1;startArrow=none;endArrow=blockThin;segment=10;curved=1;sourcePerimeterSpacing=0;targetPerimeterSpacing=0;entryX=0;entryY=0.5;entryDx=0;entryDy=0;endFill=1;" edge="1" parent="1" source="xqJ6BR3rVIV23o8yTr3R-208" target="xqJ6BR3rVIV23o8yTr3R-281">
          <mxGeometry relative="1" as="geometry" />
        </mxCell>
        <mxCell id="xqJ6BR3rVIV23o8yTr3R-284" style="edgeStyle=entityRelationEdgeStyle;rounded=0;orthogonalLoop=1;jettySize=auto;html=1;startArrow=none;endArrow=blockThin;segment=10;curved=1;sourcePerimeterSpacing=0;targetPerimeterSpacing=0;entryX=0;entryY=0.5;entryDx=0;entryDy=0;endFill=1;" edge="1" parent="1" source="xqJ6BR3rVIV23o8yTr3R-208" target="xqJ6BR3rVIV23o8yTr3R-282">
          <mxGeometry relative="1" as="geometry" />
        </mxCell>
        <mxCell id="xqJ6BR3rVIV23o8yTr3R-208" value="filterfn" style="whiteSpace=wrap;html=1;rounded=1;arcSize=50;align=center;verticalAlign=middle;strokeWidth=1;autosize=1;spacing=4;treeFolding=1;treeMoving=1;newEdgeStyle={&quot;edgeStyle&quot;:&quot;entityRelationEdgeStyle&quot;,&quot;startArrow&quot;:&quot;none&quot;,&quot;endArrow&quot;:&quot;none&quot;,&quot;segment&quot;:10,&quot;curved&quot;:1,&quot;sourcePerimeterSpacing&quot;:0,&quot;targetPerimeterSpacing&quot;:0};fillColor=#b1ddf0;strokeColor=#10739e;" vertex="1" parent="1">
          <mxGeometry x="740" y="520" width="80" height="30" as="geometry" />
        </mxCell>
        <mxCell id="xqJ6BR3rVIV23o8yTr3R-239" value="" style="endArrow=blockThin;html=1;rounded=0;endFill=0;" edge="1" parent="1">
          <mxGeometry width="50" height="50" relative="1" as="geometry">
            <mxPoint x="320" y="385" as="sourcePoint" />
            <mxPoint x="470" y="385" as="targetPoint" />
          </mxGeometry>
        </mxCell>
        <mxCell id="xqJ6BR3rVIV23o8yTr3R-236" value="iter j" style="ellipse;whiteSpace=wrap;html=1;aspect=fixed;" vertex="1" parent="1">
          <mxGeometry x="350" y="365" width="40" height="40" as="geometry" />
        </mxCell>
        <mxCell id="xqJ6BR3rVIV23o8yTr3R-237" value="solve_batch" style="text;html=1;strokeColor=none;fillColor=none;align=center;verticalAlign=middle;whiteSpace=wrap;rounded=0;" vertex="1" parent="1">
          <mxGeometry x="250" y="370" width="60" height="30" as="geometry" />
        </mxCell>
        <mxCell id="xqJ6BR3rVIV23o8yTr3R-246" style="edgeStyle=orthogonalEdgeStyle;rounded=0;orthogonalLoop=1;jettySize=auto;html=1;entryX=0;entryY=0.5;entryDx=0;entryDy=0;curved=1;" edge="1" parent="1" source="xqJ6BR3rVIV23o8yTr3R-240" target="xqJ6BR3rVIV23o8yTr3R-245">
          <mxGeometry relative="1" as="geometry">
            <Array as="points">
              <mxPoint x="620" y="343" />
              <mxPoint x="620" y="350" />
            </Array>
          </mxGeometry>
        </mxCell>
        <mxCell id="xqJ6BR3rVIV23o8yTr3R-247" style="edgeStyle=orthogonalEdgeStyle;rounded=0;orthogonalLoop=1;jettySize=auto;html=1;curved=1;" edge="1" parent="1" source="xqJ6BR3rVIV23o8yTr3R-240" target="xqJ6BR3rVIV23o8yTr3R-243">
          <mxGeometry relative="1" as="geometry">
            <Array as="points">
              <mxPoint x="620" y="343" />
              <mxPoint x="620" y="315" />
            </Array>
          </mxGeometry>
        </mxCell>
        <mxCell id="xqJ6BR3rVIV23o8yTr3R-248" style="edgeStyle=orthogonalEdgeStyle;rounded=0;orthogonalLoop=1;jettySize=auto;html=1;entryX=0;entryY=0.5;entryDx=0;entryDy=0;curved=1;exitX=1;exitY=0.5;exitDx=0;exitDy=0;" edge="1" parent="1" source="xqJ6BR3rVIV23o8yTr3R-240" target="xqJ6BR3rVIV23o8yTr3R-242">
          <mxGeometry relative="1" as="geometry">
            <Array as="points">
              <mxPoint x="610" y="265" />
            </Array>
          </mxGeometry>
        </mxCell>
        <mxCell id="xqJ6BR3rVIV23o8yTr3R-240" value="update_model" style="ellipse;whiteSpace=wrap;html=1;fillColor=#d5e8d4;strokeColor=#82b366;gradientColor=#97d077;" vertex="1" parent="1">
          <mxGeometry x="510" y="315" width="100" height="55" as="geometry" />
        </mxCell>
        <mxCell id="xqJ6BR3rVIV23o8yTr3R-241" value="" style="curved=1;endArrow=classic;html=1;rounded=0;entryX=0;entryY=0.5;entryDx=0;entryDy=0;exitX=0.5;exitY=1;exitDx=0;exitDy=0;" edge="1" parent="1" source="xqJ6BR3rVIV23o8yTr3R-236" target="xqJ6BR3rVIV23o8yTr3R-240">
          <mxGeometry width="50" height="50" relative="1" as="geometry">
            <mxPoint x="360" y="480" as="sourcePoint" />
            <mxPoint x="470" y="430" as="targetPoint" />
            <Array as="points">
              <mxPoint x="440" y="460" />
              <mxPoint x="490" y="360" />
            </Array>
          </mxGeometry>
        </mxCell>
        <mxCell id="xqJ6BR3rVIV23o8yTr3R-260" style="edgeStyle=orthogonalEdgeStyle;rounded=0;orthogonalLoop=1;jettySize=auto;html=1;entryX=0;entryY=0.5;entryDx=0;entryDy=0;curved=1;" edge="1" parent="1" source="xqJ6BR3rVIV23o8yTr3R-242" target="xqJ6BR3rVIV23o8yTr3R-196">
          <mxGeometry relative="1" as="geometry" />
        </mxCell>
        <mxCell id="xqJ6BR3rVIV23o8yTr3R-242" value="MOI.set" style="ellipse;whiteSpace=wrap;html=1;fillColor=#fad9d5;strokeColor=#ae4132;" vertex="1" parent="1">
          <mxGeometry x="640" y="250" width="50" height="30" as="geometry" />
        </mxCell>
        <mxCell id="xqJ6BR3rVIV23o8yTr3R-253" style="edgeStyle=orthogonalEdgeStyle;rounded=0;orthogonalLoop=1;jettySize=auto;html=1;entryX=0;entryY=0.625;entryDx=0;entryDy=0;entryPerimeter=0;" edge="1" parent="1" source="xqJ6BR3rVIV23o8yTr3R-243" target="xqJ6BR3rVIV23o8yTr3R-199">
          <mxGeometry relative="1" as="geometry" />
        </mxCell>
        <mxCell id="xqJ6BR3rVIV23o8yTr3R-243" value="MOI.set" style="ellipse;whiteSpace=wrap;html=1;fillColor=#fad9d5;strokeColor=#ae4132;" vertex="1" parent="1">
          <mxGeometry x="640" y="300" width="50" height="30" as="geometry" />
        </mxCell>
        <mxCell id="xqJ6BR3rVIV23o8yTr3R-254" style="edgeStyle=orthogonalEdgeStyle;rounded=0;orthogonalLoop=1;jettySize=auto;html=1;entryX=0;entryY=0.5;entryDx=0;entryDy=0;" edge="1" parent="1" source="xqJ6BR3rVIV23o8yTr3R-245" target="xqJ6BR3rVIV23o8yTr3R-202">
          <mxGeometry relative="1" as="geometry" />
        </mxCell>
        <mxCell id="xqJ6BR3rVIV23o8yTr3R-245" value="MOI.set" style="ellipse;whiteSpace=wrap;html=1;fillColor=#fad9d5;strokeColor=#ae4132;" vertex="1" parent="1">
          <mxGeometry x="640" y="335" width="50" height="30" as="geometry" />
        </mxCell>
        <mxCell id="xqJ6BR3rVIV23o8yTr3R-255" value="" style="endArrow=none;html=1;rounded=0;entryX=0.103;entryY=0.499;entryDx=0;entryDy=0;entryPerimeter=0;" edge="1" parent="1">
          <mxGeometry width="50" height="50" relative="1" as="geometry">
            <mxPoint x="220" y="385" as="sourcePoint" />
            <mxPoint x="239.87000000000012" y="384.95" as="targetPoint" />
          </mxGeometry>
        </mxCell>
        <mxCell id="xqJ6BR3rVIV23o8yTr3R-262" style="edgeStyle=orthogonalEdgeStyle;rounded=0;orthogonalLoop=1;jettySize=auto;html=1;startArrow=none;endArrow=blockThin;segment=10;curved=1;sourcePerimeterSpacing=0;targetPerimeterSpacing=0;exitX=0.5;exitY=1;exitDx=0;exitDy=0;entryX=0.5;entryY=0;entryDx=0;entryDy=0;endFill=1;" edge="1" parent="1" source="xqJ6BR3rVIV23o8yTr3R-257" target="xqJ6BR3rVIV23o8yTr3R-261">
          <mxGeometry relative="1" as="geometry" />
        </mxCell>
        <mxCell id="xqJ6BR3rVIV23o8yTr3R-257" value="JuMP.optimize!" style="whiteSpace=wrap;html=1;rounded=1;arcSize=50;align=center;verticalAlign=middle;strokeWidth=1;autosize=1;spacing=4;treeFolding=1;treeMoving=1;newEdgeStyle={&quot;edgeStyle&quot;:&quot;entityRelationEdgeStyle&quot;,&quot;startArrow&quot;:&quot;none&quot;,&quot;endArrow&quot;:&quot;none&quot;,&quot;segment&quot;:10,&quot;curved&quot;:1,&quot;sourcePerimeterSpacing&quot;:0,&quot;targetPerimeterSpacing&quot;:0};fillColor=#fad9d5;strokeColor=#ae4132;" vertex="1" parent="1">
          <mxGeometry x="690" y="435" width="130" height="30" as="geometry" />
        </mxCell>
        <mxCell id="xqJ6BR3rVIV23o8yTr3R-263" style="edgeStyle=entityRelationEdgeStyle;rounded=0;orthogonalLoop=1;jettySize=auto;html=1;startArrow=none;endArrow=blockThin;segment=10;curved=1;sourcePerimeterSpacing=0;targetPerimeterSpacing=0;entryX=0;entryY=0.5;entryDx=0;entryDy=0;endFill=1;" edge="1" parent="1" source="xqJ6BR3rVIV23o8yTr3R-261" target="xqJ6BR3rVIV23o8yTr3R-208">
          <mxGeometry relative="1" as="geometry" />
        </mxCell>
        <mxCell id="xqJ6BR3rVIV23o8yTr3R-280" style="edgeStyle=entityRelationEdgeStyle;rounded=0;orthogonalLoop=1;jettySize=auto;html=1;startArrow=none;endArrow=none;segment=10;curved=1;sourcePerimeterSpacing=0;targetPerimeterSpacing=0;exitX=0.5;exitY=1;exitDx=0;exitDy=0;entryX=0.5;entryY=0;entryDx=0;entryDy=0;" edge="1" parent="1" source="xqJ6BR3rVIV23o8yTr3R-261" target="xqJ6BR3rVIV23o8yTr3R-264">
          <mxGeometry relative="1" as="geometry" />
        </mxCell>
        <mxCell id="xqJ6BR3rVIV23o8yTr3R-261" value="record" style="whiteSpace=wrap;html=1;rounded=1;arcSize=50;align=center;verticalAlign=middle;strokeWidth=1;autosize=1;spacing=4;treeFolding=1;treeMoving=1;newEdgeStyle={&quot;edgeStyle&quot;:&quot;entityRelationEdgeStyle&quot;,&quot;startArrow&quot;:&quot;none&quot;,&quot;endArrow&quot;:&quot;none&quot;,&quot;segment&quot;:10,&quot;curved&quot;:1,&quot;sourcePerimeterSpacing&quot;:0,&quot;targetPerimeterSpacing&quot;:0};fillColor=#d5e8d4;strokeColor=#82b366;gradientColor=#97d077;" vertex="1" parent="1">
          <mxGeometry x="608" y="515" width="80" height="30" as="geometry" />
        </mxCell>
        <mxCell id="xqJ6BR3rVIV23o8yTr3R-264" value="Type: Recorder{RecorderFile}" style="shape=table;startSize=30;container=1;collapsible=0;childLayout=tableLayout;fillColor=#d5e8d4;strokeColor=#82b366;gradientColor=#97d077;" vertex="1" parent="1">
          <mxGeometry x="470" y="580" width="260" height="150" as="geometry" />
        </mxCell>
        <mxCell id="xqJ6BR3rVIV23o8yTr3R-265" value="" style="shape=tableRow;horizontal=0;startSize=0;swimlaneHead=0;swimlaneBody=0;strokeColor=inherit;top=0;left=0;bottom=0;right=0;collapsible=0;dropTarget=0;fillColor=none;points=[[0,0.5],[1,0.5]];portConstraint=eastwest;" vertex="1" parent="xqJ6BR3rVIV23o8yTr3R-264">
          <mxGeometry y="30" width="260" height="40" as="geometry" />
        </mxCell>
        <mxCell id="xqJ6BR3rVIV23o8yTr3R-266" value="primal_variables" style="shape=partialRectangle;html=1;whiteSpace=wrap;connectable=0;strokeColor=inherit;overflow=hidden;fillColor=none;top=0;left=0;bottom=0;right=0;pointerEvents=1;" vertex="1" parent="xqJ6BR3rVIV23o8yTr3R-265">
          <mxGeometry width="100" height="40" as="geometry">
            <mxRectangle width="100" height="40" as="alternateBounds" />
          </mxGeometry>
        </mxCell>
        <mxCell id="xqJ6BR3rVIV23o8yTr3R-267" value="g1" style="shape=partialRectangle;html=1;whiteSpace=wrap;connectable=0;strokeColor=#ae4132;overflow=hidden;fillColor=#fad9d5;top=0;left=0;bottom=0;right=0;pointerEvents=1;" vertex="1" parent="xqJ6BR3rVIV23o8yTr3R-265">
          <mxGeometry x="100" width="40" height="40" as="geometry">
            <mxRectangle width="40" height="40" as="alternateBounds" />
          </mxGeometry>
        </mxCell>
        <mxCell id="xqJ6BR3rVIV23o8yTr3R-268" value="..." style="shape=partialRectangle;html=1;whiteSpace=wrap;connectable=0;strokeColor=#ae4132;overflow=hidden;fillColor=#fad9d5;top=0;left=0;bottom=0;right=0;pointerEvents=1;" vertex="1" parent="xqJ6BR3rVIV23o8yTr3R-265">
          <mxGeometry x="140" width="40" height="40" as="geometry">
            <mxRectangle width="40" height="40" as="alternateBounds" />
          </mxGeometry>
        </mxCell>
        <mxCell id="xqJ6BR3rVIV23o8yTr3R-269" value="gN" style="shape=partialRectangle;html=1;whiteSpace=wrap;connectable=0;strokeColor=#ae4132;overflow=hidden;fillColor=#fad9d5;top=0;left=0;bottom=0;right=0;pointerEvents=1;" vertex="1" parent="xqJ6BR3rVIV23o8yTr3R-265">
          <mxGeometry x="180" width="80" height="40" as="geometry">
            <mxRectangle width="80" height="40" as="alternateBounds" />
          </mxGeometry>
        </mxCell>
        <mxCell id="xqJ6BR3rVIV23o8yTr3R-270" value="" style="shape=tableRow;horizontal=0;startSize=0;swimlaneHead=0;swimlaneBody=0;strokeColor=inherit;top=0;left=0;bottom=0;right=0;collapsible=0;dropTarget=0;fillColor=none;points=[[0,0.5],[1,0.5]];portConstraint=eastwest;" vertex="1" parent="xqJ6BR3rVIV23o8yTr3R-264">
          <mxGeometry y="70" width="260" height="40" as="geometry" />
        </mxCell>
        <mxCell id="xqJ6BR3rVIV23o8yTr3R-271" value="dual_variables" style="shape=partialRectangle;html=1;whiteSpace=wrap;connectable=0;strokeColor=inherit;overflow=hidden;fillColor=none;top=0;left=0;bottom=0;right=0;pointerEvents=1;" vertex="1" parent="xqJ6BR3rVIV23o8yTr3R-270">
          <mxGeometry width="100" height="40" as="geometry">
            <mxRectangle width="100" height="40" as="alternateBounds" />
          </mxGeometry>
        </mxCell>
        <mxCell id="xqJ6BR3rVIV23o8yTr3R-272" value="LMP1" style="shape=partialRectangle;html=1;whiteSpace=wrap;connectable=0;strokeColor=#ae4132;overflow=hidden;fillColor=#fad9d5;top=0;left=0;bottom=0;right=0;pointerEvents=1;" vertex="1" parent="xqJ6BR3rVIV23o8yTr3R-270">
          <mxGeometry x="100" width="40" height="40" as="geometry">
            <mxRectangle width="40" height="40" as="alternateBounds" />
          </mxGeometry>
        </mxCell>
        <mxCell id="xqJ6BR3rVIV23o8yTr3R-273" value="..." style="shape=partialRectangle;html=1;whiteSpace=wrap;connectable=0;strokeColor=#ae4132;overflow=hidden;fillColor=#fad9d5;top=0;left=0;bottom=0;right=0;pointerEvents=1;" vertex="1" parent="xqJ6BR3rVIV23o8yTr3R-270">
          <mxGeometry x="140" width="40" height="40" as="geometry">
            <mxRectangle width="40" height="40" as="alternateBounds" />
          </mxGeometry>
        </mxCell>
        <mxCell id="xqJ6BR3rVIV23o8yTr3R-274" value="LMPN" style="shape=partialRectangle;html=1;whiteSpace=wrap;connectable=0;strokeColor=#ae4132;overflow=hidden;fillColor=#fad9d5;top=0;left=0;bottom=0;right=0;pointerEvents=1;" vertex="1" parent="xqJ6BR3rVIV23o8yTr3R-270">
          <mxGeometry x="180" width="80" height="40" as="geometry">
            <mxRectangle width="80" height="40" as="alternateBounds" />
          </mxGeometry>
        </mxCell>
        <mxCell id="xqJ6BR3rVIV23o8yTr3R-275" style="shape=tableRow;horizontal=0;startSize=0;swimlaneHead=0;swimlaneBody=0;strokeColor=inherit;top=0;left=0;bottom=0;right=0;collapsible=0;dropTarget=0;fillColor=none;points=[[0,0.5],[1,0.5]];portConstraint=eastwest;" vertex="1" parent="xqJ6BR3rVIV23o8yTr3R-264">
          <mxGeometry y="110" width="260" height="40" as="geometry" />
        </mxCell>
        <mxCell id="xqJ6BR3rVIV23o8yTr3R-276" value="filterfn (Ex: termination_status == OPTIMAL)" style="shape=partialRectangle;html=1;whiteSpace=wrap;connectable=0;strokeColor=#10739e;overflow=hidden;fillColor=#b1ddf0;top=0;left=0;bottom=0;right=0;pointerEvents=1;rowspan=1;colspan=4;" vertex="1" parent="xqJ6BR3rVIV23o8yTr3R-275">
          <mxGeometry width="260" height="40" as="geometry">
            <mxRectangle width="100" height="40" as="alternateBounds" />
          </mxGeometry>
        </mxCell>
        <mxCell id="xqJ6BR3rVIV23o8yTr3R-277" style="shape=partialRectangle;html=1;whiteSpace=wrap;connectable=0;strokeColor=inherit;overflow=hidden;fillColor=none;top=0;left=0;bottom=0;right=0;pointerEvents=1;" vertex="1" visible="0" parent="xqJ6BR3rVIV23o8yTr3R-275">
          <mxGeometry x="100" width="40" height="40" as="geometry">
            <mxRectangle width="40" height="40" as="alternateBounds" />
          </mxGeometry>
        </mxCell>
        <mxCell id="xqJ6BR3rVIV23o8yTr3R-278" style="shape=partialRectangle;html=1;whiteSpace=wrap;connectable=0;strokeColor=inherit;overflow=hidden;fillColor=none;top=0;left=0;bottom=0;right=0;pointerEvents=1;" vertex="1" visible="0" parent="xqJ6BR3rVIV23o8yTr3R-275">
          <mxGeometry x="140" width="40" height="40" as="geometry">
            <mxRectangle width="40" height="40" as="alternateBounds" />
          </mxGeometry>
        </mxCell>
        <mxCell id="xqJ6BR3rVIV23o8yTr3R-279" style="shape=partialRectangle;html=1;whiteSpace=wrap;connectable=0;strokeColor=inherit;overflow=hidden;fillColor=none;top=0;left=0;bottom=0;right=0;pointerEvents=1;" vertex="1" visible="0" parent="xqJ6BR3rVIV23o8yTr3R-275">
          <mxGeometry x="180" width="80" height="40" as="geometry">
            <mxRectangle width="80" height="40" as="alternateBounds" />
          </mxGeometry>
        </mxCell>
        <mxCell id="xqJ6BR3rVIV23o8yTr3R-293" style="edgeStyle=entityRelationEdgeStyle;rounded=0;orthogonalLoop=1;jettySize=auto;html=1;startArrow=none;endArrow=classicThin;segment=10;curved=1;sourcePerimeterSpacing=0;targetPerimeterSpacing=0;entryX=0;entryY=0.5;entryDx=0;entryDy=0;endFill=0;" edge="1" parent="1" source="xqJ6BR3rVIV23o8yTr3R-281" target="xqJ6BR3rVIV23o8yTr3R-61">
          <mxGeometry relative="1" as="geometry" />
        </mxCell>
        <mxCell id="xqJ6BR3rVIV23o8yTr3R-298" style="rounded=0;orthogonalLoop=1;jettySize=auto;html=1;startArrow=block;endArrow=none;segment=10;sourcePerimeterSpacing=0;targetPerimeterSpacing=0;exitX=0.5;exitY=0;exitDx=0;exitDy=0;entryX=0.735;entryY=1.072;entryDx=0;entryDy=0;entryPerimeter=0;startFill=1;" edge="1" parent="1" source="xqJ6BR3rVIV23o8yTr3R-281" target="xqJ6BR3rVIV23o8yTr3R-202">
          <mxGeometry relative="1" as="geometry" />
        </mxCell>
        <mxCell id="xqJ6BR3rVIV23o8yTr3R-281" value="value" style="whiteSpace=wrap;html=1;rounded=1;arcSize=50;align=center;verticalAlign=middle;strokeWidth=1;autosize=1;spacing=4;treeFolding=1;treeMoving=1;newEdgeStyle={&quot;edgeStyle&quot;:&quot;entityRelationEdgeStyle&quot;,&quot;startArrow&quot;:&quot;none&quot;,&quot;endArrow&quot;:&quot;none&quot;,&quot;segment&quot;:10,&quot;curved&quot;:1,&quot;sourcePerimeterSpacing&quot;:0,&quot;targetPerimeterSpacing&quot;:0};fillColor=#fad9d5;strokeColor=#ae4132;" vertex="1" parent="1">
          <mxGeometry x="860" y="490" width="70" height="30" as="geometry" />
        </mxCell>
        <mxCell id="xqJ6BR3rVIV23o8yTr3R-294" style="edgeStyle=entityRelationEdgeStyle;rounded=0;orthogonalLoop=1;jettySize=auto;html=1;startArrow=none;endArrow=classicThin;segment=10;curved=1;sourcePerimeterSpacing=0;targetPerimeterSpacing=0;endFill=0;entryX=0;entryY=0.5;entryDx=0;entryDy=0;" edge="1" parent="1" source="xqJ6BR3rVIV23o8yTr3R-282" target="xqJ6BR3rVIV23o8yTr3R-61">
          <mxGeometry relative="1" as="geometry">
            <mxPoint x="1050" y="540" as="targetPoint" />
          </mxGeometry>
        </mxCell>
        <mxCell id="xqJ6BR3rVIV23o8yTr3R-282" value="dual" style="whiteSpace=wrap;html=1;rounded=1;arcSize=50;align=center;verticalAlign=middle;strokeWidth=1;autosize=1;spacing=4;treeFolding=1;treeMoving=1;newEdgeStyle={&quot;edgeStyle&quot;:&quot;entityRelationEdgeStyle&quot;,&quot;startArrow&quot;:&quot;none&quot;,&quot;endArrow&quot;:&quot;none&quot;,&quot;segment&quot;:10,&quot;curved&quot;:1,&quot;sourcePerimeterSpacing&quot;:0,&quot;targetPerimeterSpacing&quot;:0};fillColor=#fad9d5;strokeColor=#ae4132;" vertex="1" parent="1">
          <mxGeometry x="860" y="550" width="70" height="30" as="geometry" />
        </mxCell>
        <mxCell id="xqJ6BR3rVIV23o8yTr3R-296" value="" style="endArrow=none;html=1;rounded=0;entryX=0.5;entryY=1;entryDx=0;entryDy=0;exitX=0.5;exitY=0;exitDx=0;exitDy=0;dashed=1;" edge="1" parent="1" source="xqJ6BR3rVIV23o8yTr3R-282" target="xqJ6BR3rVIV23o8yTr3R-281">
          <mxGeometry width="50" height="50" relative="1" as="geometry">
            <mxPoint x="590" y="475" as="sourcePoint" />
            <mxPoint x="640" y="425" as="targetPoint" />
          </mxGeometry>
        </mxCell>
        <mxCell id="xqJ6BR3rVIV23o8yTr3R-302" value="LO2.jl" style="rounded=0;whiteSpace=wrap;html=1;fontSize=24;fillColor=#d5e8d4;strokeColor=#82b366;fontStyle=1;gradientColor=#97d077;" vertex="1" parent="1">
          <mxGeometry x="80" width="160" height="40" as="geometry" />
        </mxCell>
        <mxCell id="xqJ6BR3rVIV23o8yTr3R-305" value="Hugging Face" style="rounded=0;whiteSpace=wrap;html=1;fontSize=24;fillColor=#fff2cc;strokeColor=#d6b656;fontStyle=1;gradientColor=#ffd966;" vertex="1" parent="1">
          <mxGeometry x="1030" width="180" height="40" as="geometry" />
        </mxCell>
        <mxCell id="xqJ6BR3rVIV23o8yTr3R-306" value="" style="endArrow=classic;html=1;rounded=0;entryX=0;entryY=0.5;entryDx=0;entryDy=0;exitX=1;exitY=0.5;exitDx=0;exitDy=0;" edge="1" parent="1" source="xqJ6BR3rVIV23o8yTr3R-23" target="xqJ6BR3rVIV23o8yTr3R-318">
          <mxGeometry relative="1" as="geometry">
            <mxPoint x="1290" y="210" as="sourcePoint" />
            <mxPoint x="1450" y="210" as="targetPoint" />
          </mxGeometry>
        </mxCell>
        <mxCell id="xqJ6BR3rVIV23o8yTr3R-307" value="feature" style="edgeLabel;resizable=0;html=1;align=center;verticalAlign=middle;fontSize=18;" connectable="0" vertex="1" parent="xqJ6BR3rVIV23o8yTr3R-306">
          <mxGeometry relative="1" as="geometry">
            <mxPoint x="-35" y="-18" as="offset" />
          </mxGeometry>
        </mxCell>
        <mxCell id="xqJ6BR3rVIV23o8yTr3R-310" value="" style="endArrow=classic;html=1;rounded=0;entryX=0;entryY=0.5;entryDx=0;entryDy=0;exitX=1;exitY=0.5;exitDx=0;exitDy=0;" edge="1" parent="1" source="xqJ6BR3rVIV23o8yTr3R-49" target="xqJ6BR3rVIV23o8yTr3R-318">
          <mxGeometry relative="1" as="geometry">
            <mxPoint x="1290" y="476.94" as="sourcePoint" />
            <mxPoint x="1450" y="476.94" as="targetPoint" />
          </mxGeometry>
        </mxCell>
        <mxCell id="xqJ6BR3rVIV23o8yTr3R-311" value="Label" style="edgeLabel;resizable=0;html=1;align=center;verticalAlign=middle;fontSize=18;" connectable="0" vertex="1" parent="xqJ6BR3rVIV23o8yTr3R-310">
          <mxGeometry relative="1" as="geometry">
            <mxPoint x="-35" y="24" as="offset" />
          </mxGeometry>
        </mxCell>
        <mxCell id="xqJ6BR3rVIV23o8yTr3R-312" value="" style="endArrow=none;html=1;rounded=0;entryX=0.5;entryY=1;entryDx=0;entryDy=0;exitX=0.345;exitY=0;exitDx=0;exitDy=0;exitPerimeter=0;" edge="1" parent="1" source="xqJ6BR3rVIV23o8yTr3R-221" target="xqJ6BR3rVIV23o8yTr3R-139">
          <mxGeometry width="50" height="50" relative="1" as="geometry">
            <mxPoint x="720" y="420" as="sourcePoint" />
            <mxPoint x="770" y="370" as="targetPoint" />
          </mxGeometry>
        </mxCell>
        <mxCell id="xqJ6BR3rVIV23o8yTr3R-314" value="Flux.jl" style="rounded=0;whiteSpace=wrap;html=1;fontSize=24;fillColor=#e6d0de;strokeColor=#996185;fontStyle=1;gradientColor=#d5739d;" vertex="1" parent="1">
          <mxGeometry x="1380" width="180" height="40" as="geometry" />
        </mxCell>
        <mxCell id="xqJ6BR3rVIV23o8yTr3R-328" style="edgeStyle=orthogonalEdgeStyle;rounded=0;orthogonalLoop=1;jettySize=auto;html=1;entryX=0.5;entryY=0;entryDx=0;entryDy=0;endArrow=none;endFill=0;" edge="1" parent="1" source="xqJ6BR3rVIV23o8yTr3R-315" target="xqJ6BR3rVIV23o8yTr3R-319">
          <mxGeometry relative="1" as="geometry" />
        </mxCell>
        <mxCell id="xqJ6BR3rVIV23o8yTr3R-315" value="model" style="shape=table;startSize=30;container=1;collapsible=0;childLayout=tableLayout;fillColor=#b1ddf0;strokeColor=#10739e;fontStyle=1" vertex="1" parent="1">
          <mxGeometry x="1475" y="110" width="80" height="70" as="geometry" />
        </mxCell>
        <mxCell id="xqJ6BR3rVIV23o8yTr3R-316" value="" style="shape=tableRow;horizontal=0;startSize=0;swimlaneHead=0;swimlaneBody=0;strokeColor=inherit;top=0;left=0;bottom=0;right=0;collapsible=0;dropTarget=0;fillColor=none;points=[[0,0.5],[1,0.5]];portConstraint=eastwest;" vertex="1" parent="xqJ6BR3rVIV23o8yTr3R-315">
          <mxGeometry y="30" width="80" height="40" as="geometry" />
        </mxCell>
        <mxCell id="xqJ6BR3rVIV23o8yTr3R-317" value="Flux.chain" style="shape=partialRectangle;html=1;whiteSpace=wrap;connectable=0;strokeColor=inherit;overflow=hidden;fillColor=none;top=0;left=0;bottom=0;right=0;pointerEvents=1;" vertex="1" parent="xqJ6BR3rVIV23o8yTr3R-316">
          <mxGeometry width="80" height="40" as="geometry">
            <mxRectangle width="80" height="40" as="alternateBounds" />
          </mxGeometry>
        </mxCell>
        <mxCell id="xqJ6BR3rVIV23o8yTr3R-318" value="Flux.train" style="whiteSpace=wrap;html=1;rounded=1;arcSize=50;align=center;verticalAlign=middle;strokeWidth=1;autosize=1;spacing=4;treeFolding=1;treeMoving=1;newEdgeStyle={&quot;edgeStyle&quot;:&quot;entityRelationEdgeStyle&quot;,&quot;startArrow&quot;:&quot;none&quot;,&quot;endArrow&quot;:&quot;none&quot;,&quot;segment&quot;:10,&quot;curved&quot;:1,&quot;sourcePerimeterSpacing&quot;:0,&quot;targetPerimeterSpacing&quot;:0};fillColor=#e6d0de;strokeColor=#996185;gradientColor=#d5739d;" vertex="1" parent="1">
          <mxGeometry x="1470" y="330" width="90" height="30" as="geometry" />
        </mxCell>
        <mxCell id="xqJ6BR3rVIV23o8yTr3R-330" style="edgeStyle=orthogonalEdgeStyle;rounded=0;orthogonalLoop=1;jettySize=auto;html=1;entryX=0.5;entryY=1;entryDx=0;entryDy=0;" edge="1" parent="1" source="xqJ6BR3rVIV23o8yTr3R-323" target="xqJ6BR3rVIV23o8yTr3R-318">
          <mxGeometry relative="1" as="geometry" />
        </mxCell>
        <mxCell id="xqJ6BR3rVIV23o8yTr3R-323" value="loss" style="shape=table;startSize=30;container=1;collapsible=0;childLayout=tableLayout;fillColor=#b1ddf0;strokeColor=#10739e;fontStyle=1" vertex="1" parent="1">
          <mxGeometry x="1447.5" y="435" width="135" height="70" as="geometry" />
        </mxCell>
        <mxCell id="xqJ6BR3rVIV23o8yTr3R-324" value="" style="shape=tableRow;horizontal=0;startSize=0;swimlaneHead=0;swimlaneBody=0;strokeColor=inherit;top=0;left=0;bottom=0;right=0;collapsible=0;dropTarget=0;fillColor=none;points=[[0,0.5],[1,0.5]];portConstraint=eastwest;" vertex="1" parent="xqJ6BR3rVIV23o8yTr3R-323">
          <mxGeometry y="30" width="135" height="40" as="geometry" />
        </mxCell>
        <mxCell id="xqJ6BR3rVIV23o8yTr3R-325" value="Flux.mse(model(x), y)" style="shape=partialRectangle;html=1;whiteSpace=wrap;connectable=0;strokeColor=inherit;overflow=hidden;fillColor=none;top=0;left=0;bottom=0;right=0;pointerEvents=1;" vertex="1" parent="xqJ6BR3rVIV23o8yTr3R-324">
          <mxGeometry width="135" height="40" as="geometry">
            <mxRectangle width="135" height="40" as="alternateBounds" />
          </mxGeometry>
        </mxCell>
        <mxCell id="xqJ6BR3rVIV23o8yTr3R-329" style="edgeStyle=orthogonalEdgeStyle;rounded=0;orthogonalLoop=1;jettySize=auto;html=1;entryX=0.5;entryY=0;entryDx=0;entryDy=0;" edge="1" parent="1" source="xqJ6BR3rVIV23o8yTr3R-319" target="xqJ6BR3rVIV23o8yTr3R-318">
          <mxGeometry relative="1" as="geometry" />
        </mxCell>
        <mxCell id="xqJ6BR3rVIV23o8yTr3R-319" value="optimizer" style="shape=table;startSize=30;container=1;collapsible=0;childLayout=tableLayout;fillColor=#b1ddf0;strokeColor=#10739e;fontStyle=1" vertex="1" parent="1">
          <mxGeometry x="1475" y="210" width="80" height="70" as="geometry" />
        </mxCell>
        <mxCell id="xqJ6BR3rVIV23o8yTr3R-320" value="" style="shape=tableRow;horizontal=0;startSize=0;swimlaneHead=0;swimlaneBody=0;strokeColor=inherit;top=0;left=0;bottom=0;right=0;collapsible=0;dropTarget=0;fillColor=none;points=[[0,0.5],[1,0.5]];portConstraint=eastwest;" vertex="1" parent="xqJ6BR3rVIV23o8yTr3R-319">
          <mxGeometry y="30" width="80" height="40" as="geometry" />
        </mxCell>
        <mxCell id="xqJ6BR3rVIV23o8yTr3R-321" value="Flux.ADAM()" style="shape=partialRectangle;html=1;whiteSpace=wrap;connectable=0;strokeColor=inherit;overflow=hidden;fillColor=none;top=0;left=0;bottom=0;right=0;pointerEvents=1;" vertex="1" parent="xqJ6BR3rVIV23o8yTr3R-320">
          <mxGeometry width="80" height="40" as="geometry">
            <mxRectangle width="80" height="40" as="alternateBounds" />
          </mxGeometry>
        </mxCell>
      </root>
    </mxGraphModel>
  </diagram>
</mxfile>
